{
    "accessors" : [{
        "bufferView" : 0,
        "componentType" : 5123,
        "count" : 2904,
        "max" : [1965],
        "min" : [0],
        "type" : "SCALAR"
    },{
        "bufferView" : 1,
        "componentType" : 5126,
        "count" : 1966,
        "max" : [1.36719,0.984375,0.851562],
        "min" : [-1.36719,-0.984375,-0.851562],
        "type" : "VEC3"
    },{
        "bufferView" : 2,
        "componentType" : 5126,
        "count" : 1966,
        "max" : [1,0.997018,1],
        "min" : [-1,-0.992403,-0.986474],
        "type" : "VEC3"
    }],
    "asset" : {
        "generator" : "Khronos Blender glTF 2.0 exporter",
        "version" : "2.0"
    },
    "bufferViews" : [{
        "buffer" : 0,
        "byteLength" : 5808,
        "byteOffset" : 0,
        "target" : 34963
    },{
        "buffer" : 0,
        "byteLength" : 23592,
        "byteOffset" : 5808,
        "target" : 34962
    },{
        "buffer" : 0,
        "byteLength" : 23592,
        "byteOffset" : 29400,
        "target" : 34962
    }],
    "buffers" : [{
        "byteLength" : 52992,
        "uri" : "untitled.bin"
    }],
    "materials" : [{
        "name" : "Material.001",
        "pbrMetallicRoughness" : {
            "baseColorFactor" : [0.0497483,0.64,0.0419076,1],
            "metallicFactor" : 0
        }
    }],
    "meshes" : [{
        "name" : "Suzanne",
        "primitives" : [{
            "attributes" : {
                "NORMAL" : 2,
                "POSITION" : 1
            },
            "indices" : 0,
            "material" : 0
        }]
    }],
    "nodes" : [{
        "mesh" : 0,
        "name" : "Suzanne"
    }],
    "scene" : 0,
    "scenes" : [{
        "name" : "Scene",
        "nodes" : [0]
    }]
}
